<svg xmlns="http://www.w3.org/2000/svg" viewBox="0 0 64 64">
  <rect width="64" height="64" fill="#050505"/>
  <g transform="translate(32,33) scale(0.40) translate(-75,-68)">
    <g fill="none" stroke="#00ff41" stroke-width="7.5" stroke-linecap="round" stroke-linejoin="round">
      <path d="M75 12 C46 12 24 31 24 58 C24 72 30 83 40 90
               C44 92.5 46 95 46 98 V102 H104 V98
               C104 95 106 92.5 110 90 C120 83 126 72 126 58
               C126 31 104 12 75 12 Z"/>
      <path d="M47 102 H103 V110 C103 119 95 124 84 124 H66 C55 124 47 119 47 110 Z"/>
    </g>
    <path d="M36 51 H61 L59 66 C57.5 73 52.5 77 47 77
             C40 77 35 71 35 62 C35 57 35.3 53.5 36 51 Z" fill="#00ff41"/>
    <path d="M114 51 H89 L91 66 C92.5 73 97.5 77 103 77
             C110 77 115 71 115 62 C115 57 114.7 53.5 114 51 Z" fill="#00ff41"/>
    <path d="M75 82 L69 93 H81 Z" fill="#00ff41"/>
    <g fill="#00ff41">
      <rect x="57.5" y="104" width="8.5" height="9" rx="1.6"/>
      <rect x="68.5" y="104" width="13" height="11" rx="1.8"/>
      <rect x="84" y="104" width="8.5" height="9" rx="1.6"/>
    </g>
  </g>
</svg>
